<?xml version="1.0" encoding="utf-8"?>
<svg width="800px" height="800px" viewBox="0 0 36 36" xmlns="http://www.w3.org/2000/svg" xmlns:xlink="http://www.w3.org/1999/xlink" aria-hidden="true" role="img" class="iconify iconify--twemoji" preserveAspectRatio="xMidYMid meet" overflow="visible">
  <!-- Definisi filter untuk bayangan -->
  <defs>
    <filter id="shadow" x="-10%" y="-10%" width="120%" height="120%">
      <feDropShadow dx="1" dy="2" stdDeviation="1" flood-color="rgba(0, 0, 0, 0.4)" />
    </filter>
  </defs>

  <!-- Elemen yang akan memiliki bayangan -->
  <g filter="url(#shadow)" transform="translate(0, -2)">
    <path fill="#A6D388" d="M6.401 28.55c5.006 5.006 16.502 11.969 29.533-.07c-7.366-1.417-8.662-10.789-13.669-15.794c-5.006-5.007-11.991-6.139-16.998-1.133c-5.006 5.006-3.873 11.99 1.134 16.997z">
      <animateTransform attributeName="transform" type="rotate" values="0 18 18; 5 18 18; -5 18 18; 0 18 18" dur="2s" repeatCount="indefinite" />
    </path>
    <path fill="#77B255" d="M24.684 29.81c6.128 1.634 10.658-.738 11.076-1.156c0 0-3.786 1.751-10.359-1.476c.952-1.212 3.854-2.909 3.854-2.909c-.553-.346-4.078-.225-6.485 1.429a37.028 37.028 0 0 1-3.673-2.675l.84-.871c3.25-3.384 6.944-2.584 6.944-2.584c-.638-.613-5.599-3.441-9.583.7l-.613.638a54.727 54.727 0 0 1-1.294-1.25l-1.85-1.85l1.064-1.065c3.321-3.32 8.226-3.451 8.226-3.451c-.626-.627-6.863-2.649-10.924 1.412l-.736.735l-8.292-8.294c-.626-.627-1.692-.575-2.317.05c-.626.626-.677 1.691-.051 2.317l8.293 8.293l-.059.059C4.684 21.924 6.37 28.496 6.997 29.123c0 0 .468-5.242 3.789-8.562l.387-.388l3.501 3.502c.057.057.113.106.17.163c-2.425 4.797 1.229 10.34 1.958 10.784c0 0-1.465-4.723.48-8.635c1.526 1.195 3.02 2.095 4.457 2.755c.083 2.993 2.707 5.7 3.344 5.931c0 0-.911-3.003-.534-4.487l.135-.376z">
      <animateTransform attributeName="transform" type="rotate" values="0 18 18; 5 18 18; -5 18 18; 0 18 18" dur="2s" repeatCount="indefinite" />
    </path>
  </g>
</svg>
